# Blender 3.3.1
# www.blender.org
o Head
v 0.250000 1.500000 -0.250000
v -0.250000 1.500000 -0.250000
v -0.250000 2.000000 -0.250000
v 0.250000 2.000000 -0.250000
v 0.250000 1.500000 0.250000
v 0.250000 2.000000 0.250000
v -0.250000 1.500000 0.250000
v -0.250000 2.000000 0.250000
vn -0.0000 -0.0000 -1.0000
vn 1.0000 -0.0000 -0.0000
vn -0.0000 -0.0000 1.0000
vn -1.0000 -0.0000 -0.0000
vn -0.0000 1.0000 -0.0000
vn -0.0000 -1.0000 -0.0000
vt 0.125000 0.750000
vt 0.250000 0.875000
vt 0.375000 0.875000
vt 0.250000 0.750000
vt 0.250000 0.875000
vt 0.125000 0.875000
vt 0.000000 0.750000
vt 0.500000 0.750000
vt 0.250000 1.000000
vt 0.000000 0.875000
vt 0.500000 0.875000
vt 0.125000 1.000000
vt 0.375000 0.750000
vt 0.375000 1.000000
vt 0.250000 1.000000
vt 0.375000 0.875000
s 1
f 2/4/1 4/6/1 1/1/1
f 1/1/2 6/10/2 5/7/2
f 5/8/3 8/16/3 7/13/3
f 7/13/4 3/5/4 2/4/4
f 6/12/5 3/5/5 8/15/5
f 1/2/6 7/14/6 2/3/6
f 2/4/1 3/5/1 4/6/1
f 1/1/2 4/6/2 6/10/2
f 5/8/3 6/11/3 8/16/3
f 7/13/4 8/16/4 3/5/4
f 6/12/5 4/6/5 3/5/5
f 1/2/6 5/9/6 7/14/6
o Hat_Layer
v 0.281250 1.468750 -0.281250
v -0.281250 1.468750 -0.281250
v -0.281250 2.031250 -0.281250
v 0.281250 2.031250 -0.281250
v 0.281250 1.468750 0.281250
v 0.281250 2.031250 0.281250
v -0.281250 1.468750 0.281250
v -0.281250 2.031250 0.281250
vn -0.0000 -0.0000 -1.0000
vn 1.0000 -0.0000 -0.0000
vn -0.0000 -0.0000 1.0000
vn -1.0000 -0.0000 -0.0000
vn -0.0000 1.0000 -0.0000
vn -0.0000 -1.0000 -0.0000
vt 0.625000 0.750000
vt 0.750000 0.875000
vt 0.875000 0.875000
vt 0.750000 0.750000
vt 0.750000 0.875000
vt 0.625000 0.875000
vt 0.500000 0.750000
vt 1.000000 0.750000
vt 0.750000 1.000000
vt 0.500000 0.875000
vt 1.000000 0.875000
vt 0.625000 1.000000
vt 0.875000 0.750000
vt 0.875000 1.000000
vt 0.750000 1.000000
vt 0.875000 0.875000
s 1
f 10/20/7 12/22/7 9/17/7
f 9/17/8 14/26/8 13/23/8
f 13/24/9 16/32/9 15/29/9
f 15/29/10 11/21/10 10/20/10
f 14/28/11 11/21/11 16/31/11
f 9/18/12 15/30/12 10/19/12
f 10/20/7 11/21/7 12/22/7
f 9/17/8 12/22/8 14/26/8
f 13/24/9 14/27/9 16/32/9
f 15/29/10 16/32/10 11/21/10
f 14/28/11 12/22/11 11/21/11
f 9/18/12 13/25/12 15/30/12
o Body
v 0.250000 0.750000 -0.125000
v -0.250000 0.750000 -0.125000
v -0.250000 1.500000 -0.125000
v 0.250000 1.500000 -0.125000
v 0.250000 0.750000 0.125000
v 0.250000 1.500000 0.125000
v -0.250000 0.750000 0.125000
v -0.250000 1.500000 0.125000
vn -0.0000 -0.0000 -1.0000
vn 1.0000 -0.0000 -0.0000
vn -0.0000 -0.0000 1.0000
vn -1.0000 -0.0000 -0.0000
vn -0.0000 1.0000 -0.0000
vn -0.0000 -1.0000 -0.0000
vt 0.312500 0.500000
vt 0.437500 0.687500
vt 0.562500 0.687500
vt 0.437500 0.500000
vt 0.437500 0.687500
vt 0.312500 0.687500
vt 0.250000 0.500000
vt 0.625000 0.500000
vt 0.437500 0.750000
vt 0.250000 0.687500
vt 0.625000 0.687500
vt 0.312500 0.750000
vt 0.500000 0.500000
vt 0.562500 0.750000
vt 0.437500 0.750000
vt 0.500000 0.687500
s 1
f 18/36/13 20/38/13 17/33/13
f 17/33/14 22/42/14 21/39/14
f 21/40/15 24/48/15 23/45/15
f 23/45/16 19/37/16 18/36/16
f 22/44/17 19/37/17 24/47/17
f 17/34/18 23/46/18 18/35/18
f 18/36/13 19/37/13 20/38/13
f 17/33/14 20/38/14 22/42/14
f 21/40/15 22/43/15 24/48/15
f 23/45/16 24/48/16 19/37/16
f 22/44/17 20/38/17 19/37/17
f 17/34/18 21/41/18 23/46/18
o Body_Layer
v 0.265625 0.734375 -0.140625
v -0.265625 0.734375 -0.140625
v -0.265625 1.515625 -0.140625
v 0.265625 1.515625 -0.140625
v 0.265625 0.734375 0.140625
v 0.265625 1.515625 0.140625
v -0.265625 0.734375 0.140625
v -0.265625 1.515625 0.140625
vn -0.0000 -0.0000 -1.0000
vn 1.0000 -0.0000 -0.0000
vn -0.0000 -0.0000 1.0000
vn -1.0000 -0.0000 -0.0000
vn -0.0000 1.0000 -0.0000
vn -0.0000 -1.0000 -0.0000
vt 0.312500 0.250000
vt 0.437500 0.437500
vt 0.562500 0.437500
vt 0.437500 0.250000
vt 0.437500 0.437500
vt 0.312500 0.437500
vt 0.250000 0.250000
vt 0.625000 0.250000
vt 0.437500 0.500000
vt 0.250000 0.437500
vt 0.625000 0.437500
vt 0.312500 0.500000
vt 0.500000 0.250000
vt 0.562500 0.500000
vt 0.437500 0.500000
vt 0.500000 0.437500
s 1
f 26/52/19 28/54/19 25/49/19
f 25/49/20 30/58/20 29/55/20
f 29/56/21 32/64/21 31/61/21
f 31/61/22 27/53/22 26/52/22
f 30/60/23 27/53/23 32/63/23
f 25/50/24 31/62/24 26/51/24
f 26/52/19 27/53/19 28/54/19
f 25/49/20 28/54/20 30/58/20
f 29/56/21 30/59/21 32/64/21
f 31/61/22 32/64/22 27/53/22
f 30/60/23 28/54/23 27/53/23
f 25/50/24 29/57/24 31/62/24
o Right_Arm
v 0.500000 0.750000 -0.125000
v 0.250000 0.750000 -0.125000
v 0.250000 1.500000 -0.125000
v 0.500000 1.500000 -0.125000
v 0.500000 0.750000 0.125000
v 0.500000 1.500000 0.125000
v 0.250000 0.750000 0.125000
v 0.250000 1.500000 0.125000
vn -0.0000 -0.0000 -1.0000
vn 1.0000 -0.0000 -0.0000
vn -0.0000 -0.0000 1.0000
vn -1.0000 -0.0000 -0.0000
vn -0.0000 1.0000 -0.0000
vn -0.0000 -1.0000 -0.0000
vt 0.687500 0.500000
vt 0.750000 0.687500
vt 0.812500 0.687500
vt 0.750000 0.500000
vt 0.750000 0.687500
vt 0.687500 0.687500
vt 0.625000 0.500000
vt 0.875000 0.500000
vt 0.750000 0.750000
vt 0.625000 0.687500
vt 0.875000 0.687500
vt 0.687500 0.750000
vt 0.812500 0.500000
vt 0.812500 0.750000
vt 0.750000 0.750000
vt 0.812500 0.687500
s 1
f 34/68/25 36/70/25 33/65/25
f 33/65/26 38/74/26 37/71/26
f 37/72/27 40/80/27 39/77/27
f 39/77/28 35/69/28 34/68/28
f 38/76/29 35/69/29 40/79/29
f 33/66/30 39/78/30 34/67/30
f 34/68/25 35/69/25 36/70/25
f 33/65/26 36/70/26 38/74/26
f 37/72/27 38/75/27 40/80/27
f 39/77/28 40/80/28 35/69/28
f 38/76/29 36/70/29 35/69/29
f 33/66/30 37/73/30 39/78/30
o Right_Arm_Layer
v 0.515625 0.734375 -0.140625
v 0.234375 0.734375 -0.140625
v 0.234375 1.515625 -0.140625
v 0.515625 1.515625 -0.140625
v 0.515625 0.734375 0.140625
v 0.515625 1.515625 0.140625
v 0.234375 0.734375 0.140625
v 0.234375 1.515625 0.140625
vn -0.0000 -0.0000 -1.0000
vn 1.0000 -0.0000 -0.0000
vn -0.0000 -0.0000 1.0000
vn -1.0000 -0.0000 -0.0000
vn -0.0000 1.0000 -0.0000
vn -0.0000 -1.0000 -0.0000
vt 0.687500 0.250000
vt 0.750000 0.437500
vt 0.812500 0.437500
vt 0.750000 0.250000
vt 0.750000 0.437500
vt 0.687500 0.437500
vt 0.625000 0.250000
vt 0.875000 0.250000
vt 0.750000 0.500000
vt 0.625000 0.437500
vt 0.875000 0.437500
vt 0.687500 0.500000
vt 0.812500 0.250000
vt 0.812500 0.500000
vt 0.750000 0.500000
vt 0.812500 0.437500
s 1
f 42/84/31 44/86/31 41/81/31
f 41/81/32 46/90/32 45/87/32
f 45/88/33 48/96/33 47/93/33
f 47/93/34 43/85/34 42/84/34
f 46/92/35 43/85/35 48/95/35
f 41/82/36 47/94/36 42/83/36
f 42/84/31 43/85/31 44/86/31
f 41/81/32 44/86/32 46/90/32
f 45/88/33 46/91/33 48/96/33
f 47/93/34 48/96/34 43/85/34
f 46/92/35 44/86/35 43/85/35
f 41/82/36 45/89/36 47/94/36
o Left_Arm
v -0.250000 0.750000 -0.125000
v -0.500000 0.750000 -0.125000
v -0.500000 1.500000 -0.125000
v -0.250000 1.500000 -0.125000
v -0.250000 0.750000 0.125000
v -0.250000 1.500000 0.125000
v -0.500000 0.750000 0.125000
v -0.500000 1.500000 0.125000
vn -0.0000 -0.0000 -1.0000
vn 1.0000 -0.0000 -0.0000
vn -0.0000 -0.0000 1.0000
vn -1.0000 -0.0000 -0.0000
vn -0.0000 1.0000 -0.0000
vn -0.0000 -1.0000 -0.0000
vt 0.562500 0.000000
vt 0.625000 0.187500
vt 0.687500 0.187500
vt 0.625000 0.000000
vt 0.625000 0.187500
vt 0.562500 0.187500
vt 0.500000 0.000000
vt 0.750000 0.000000
vt 0.625000 0.250000
vt 0.500000 0.187500
vt 0.750000 0.187500
vt 0.562500 0.250000
vt 0.687500 0.000000
vt 0.687500 0.250000
vt 0.625000 0.250000
vt 0.687500 0.187500
s 1
f 50/100/37 52/102/37 49/97/37
f 49/97/38 54/106/38 53/103/38
f 53/104/39 56/112/39 55/109/39
f 55/109/40 51/101/40 50/100/40
f 54/108/41 51/101/41 56/111/41
f 49/98/42 55/110/42 50/99/42
f 50/100/37 51/101/37 52/102/37
f 49/97/38 52/102/38 54/106/38
f 53/104/39 54/107/39 56/112/39
f 55/109/40 56/112/40 51/101/40
f 54/108/41 52/102/41 51/101/41
f 49/98/42 53/105/42 55/110/42
o Left_Arm_Layer
v -0.234375 0.734375 -0.140625
v -0.515625 0.734375 -0.140625
v -0.515625 1.515625 -0.140625
v -0.234375 1.515625 -0.140625
v -0.234375 0.734375 0.140625
v -0.234375 1.515625 0.140625
v -0.515625 0.734375 0.140625
v -0.515625 1.515625 0.140625
vn -0.0000 -0.0000 -1.0000
vn 1.0000 -0.0000 -0.0000
vn -0.0000 -0.0000 1.0000
vn -1.0000 -0.0000 -0.0000
vn -0.0000 1.0000 -0.0000
vn -0.0000 -1.0000 -0.0000
vt 0.812500 0.000000
vt 0.875000 0.187500
vt 0.937500 0.187500
vt 0.875000 0.000000
vt 0.875000 0.187500
vt 0.812500 0.187500
vt 0.750000 0.000000
vt 1.000000 0.000000
vt 0.875000 0.250000
vt 0.750000 0.187500
vt 1.000000 0.187500
vt 0.812500 0.250000
vt 0.937500 0.000000
vt 0.937500 0.250000
vt 0.875000 0.250000
vt 0.937500 0.187500
s 1
f 58/116/43 60/118/43 57/113/43
f 57/113/44 62/122/44 61/119/44
f 61/120/45 64/128/45 63/125/45
f 63/125/46 59/117/46 58/116/46
f 62/124/47 59/117/47 64/127/47
f 57/114/48 63/126/48 58/115/48
f 58/116/43 59/117/43 60/118/43
f 57/113/44 60/118/44 62/122/44
f 61/120/45 62/123/45 64/128/45
f 63/125/46 64/128/46 59/117/46
f 62/124/47 60/118/47 59/117/47
f 57/114/48 61/121/48 63/126/48
o Right_Leg
v 0.243750 0.000000 -0.125000
v -0.006250 0.000000 -0.125000
v -0.006250 0.750000 -0.125000
v 0.243750 0.750000 -0.125000
v 0.243750 -0.000000 0.125000
v 0.243750 0.750000 0.125000
v -0.006250 -0.000000 0.125000
v -0.006250 0.750000 0.125000
vn -0.0000 -0.0000 -1.0000
vn 1.0000 -0.0000 -0.0000
vn -0.0000 -0.0000 1.0000
vn -1.0000 -0.0000 -0.0000
vn -0.0000 1.0000 -0.0000
vn -0.0000 -1.0000 -0.0000
vt 0.062500 0.500000
vt 0.125000 0.687500
vt 0.187500 0.687500
vt 0.125000 0.500000
vt 0.125000 0.687500
vt 0.062500 0.687500
vt 0.000000 0.500000
vt 0.250000 0.500000
vt 0.125000 0.750000
vt 0.000000 0.687500
vt 0.250000 0.687500
vt 0.062500 0.750000
vt 0.187500 0.500000
vt 0.187500 0.750000
vt 0.125000 0.750000
vt 0.187500 0.687500
s 1
f 66/132/49 68/134/49 65/129/49
f 65/129/50 70/138/50 69/135/50
f 69/136/51 72/144/51 71/141/51
f 71/141/52 67/133/52 66/132/52
f 70/140/53 67/133/53 72/143/53
f 65/130/54 71/142/54 66/131/54
f 66/132/49 67/133/49 68/134/49
f 65/129/50 68/134/50 70/138/50
f 69/136/51 70/139/51 72/144/51
f 71/141/52 72/144/52 67/133/52
f 70/140/53 68/134/53 67/133/53
f 65/130/54 69/137/54 71/142/54
o Right_Leg_Layer
v 0.259375 -0.015625 -0.140625
v -0.021875 -0.015625 -0.140625
v -0.021875 0.765625 -0.140625
v 0.259375 0.765625 -0.140625
v 0.259375 -0.015625 0.140625
v 0.259375 0.765625 0.140625
v -0.021875 -0.015625 0.140625
v -0.021875 0.765625 0.140625
vn -0.0000 -0.0000 -1.0000
vn 1.0000 -0.0000 -0.0000
vn -0.0000 -0.0000 1.0000
vn -1.0000 -0.0000 -0.0000
vn -0.0000 1.0000 -0.0000
vn -0.0000 -1.0000 -0.0000
vt 0.062500 0.250000
vt 0.125000 0.437500
vt 0.187500 0.437500
vt 0.125000 0.250000
vt 0.125000 0.437500
vt 0.062500 0.437500
vt 0.000000 0.250000
vt 0.250000 0.250000
vt 0.125000 0.500000
vt 0.000000 0.437500
vt 0.250000 0.437500
vt 0.062500 0.500000
vt 0.187500 0.250000
vt 0.187500 0.500000
vt 0.125000 0.500000
vt 0.187500 0.437500
s 1
f 74/148/55 76/150/55 73/145/55
f 73/145/56 78/154/56 77/151/56
f 77/152/57 80/160/57 79/157/57
f 79/157/58 75/149/58 74/148/58
f 78/156/59 75/149/59 80/159/59
f 73/146/60 79/158/60 74/147/60
f 74/148/55 75/149/55 76/150/55
f 73/145/56 76/150/56 78/154/56
f 77/152/57 78/155/57 80/160/57
f 79/157/58 80/160/58 75/149/58
f 78/156/59 76/150/59 75/149/59
f 73/146/60 77/153/60 79/158/60
o Left_Leg
v 0.006250 0.000000 -0.125000
v -0.243750 0.000000 -0.125000
v -0.243750 0.750000 -0.125000
v 0.006250 0.750000 -0.125000
v 0.006250 -0.000000 0.125000
v 0.006250 0.750000 0.125000
v -0.243750 -0.000000 0.125000
v -0.243750 0.750000 0.125000
vn -0.0000 -0.0000 -1.0000
vn 1.0000 -0.0000 -0.0000
vn -0.0000 -0.0000 1.0000
vn -1.0000 -0.0000 -0.0000
vn -0.0000 1.0000 -0.0000
vn -0.0000 -1.0000 -0.0000
vt 0.312500 0.000000
vt 0.375000 0.187500
vt 0.437500 0.187500
vt 0.375000 0.000000
vt 0.375000 0.187500
vt 0.312500 0.187500
vt 0.250000 0.000000
vt 0.500000 0.000000
vt 0.375000 0.250000
vt 0.250000 0.187500
vt 0.500000 0.187500
vt 0.312500 0.250000
vt 0.437500 0.000000
vt 0.437500 0.250000
vt 0.375000 0.250000
vt 0.437500 0.187500
s 1
f 82/164/61 84/166/61 81/161/61
f 81/161/62 86/170/62 85/167/62
f 85/168/63 88/176/63 87/173/63
f 87/173/64 83/165/64 82/164/64
f 86/172/65 83/165/65 88/175/65
f 81/162/66 87/174/66 82/163/66
f 82/164/61 83/165/61 84/166/61
f 81/161/62 84/166/62 86/170/62
f 85/168/63 86/171/63 88/176/63
f 87/173/64 88/176/64 83/165/64
f 86/172/65 84/166/65 83/165/65
f 81/162/66 85/169/66 87/174/66
o Left_Leg_Layer
v 0.021875 -0.015625 -0.140625
v -0.259375 -0.015625 -0.140625
v -0.259375 0.765625 -0.140625
v 0.021875 0.765625 -0.140625
v 0.021875 -0.015625 0.140625
v 0.021875 0.765625 0.140625
v -0.259375 -0.015625 0.140625
v -0.259375 0.765625 0.140625
vn -0.0000 -0.0000 -1.0000
vn 1.0000 -0.0000 -0.0000
vn -0.0000 -0.0000 1.0000
vn -1.0000 -0.0000 -0.0000
vn -0.0000 1.0000 -0.0000
vn -0.0000 -1.0000 -0.0000
vt 0.062500 0.000000
vt 0.125000 0.187500
vt 0.187500 0.187500
vt 0.125000 0.000000
vt 0.125000 0.187500
vt 0.062500 0.187500
vt 0.000000 0.000000
vt 0.250000 0.000000
vt 0.125000 0.250000
vt 0.000000 0.187500
vt 0.250000 0.187500
vt 0.062500 0.250000
vt 0.187500 0.000000
vt 0.187500 0.250000
vt 0.125000 0.250000
vt 0.187500 0.187500
s 1
f 90/180/67 92/182/67 89/177/67
f 89/177/68 94/186/68 93/183/68
f 93/184/69 96/192/69 95/189/69
f 95/189/70 91/181/70 90/180/70
f 94/188/71 91/181/71 96/191/71
f 89/178/72 95/190/72 90/179/72
f 90/180/67 91/181/67 92/182/67
f 89/177/68 92/182/68 94/186/68
f 93/184/69 94/187/69 96/192/69
f 95/189/70 96/192/70 91/181/70
f 94/188/71 92/182/71 91/181/71
f 89/178/72 93/185/72 95/190/72
